<?xml version="1.0" encoding="UTF-8"?>
<svg version="1.1" xmlns="http://www.w3.org/2000/svg" width="512" height="512">
<path d="M0 0 C-1.48193993 4.87647304 -3.49264062 9.26225232 -5.78125 13.79296875 C-6.15078796 14.53194901 -6.52032593 15.27092926 -6.90106201 16.03230286 C-8.09651363 18.41949944 -9.29801433 20.80358762 -10.5 23.1875 C-11.32923668 24.83912488 -12.15833775 26.49081784 -12.98730469 28.14257812 C-17.35403084 36.8292187 -21.76877618 45.48524854 -26.35107422 54.06054688 C-32.47936438 65.57801021 -38.19864182 77.31555666 -44 89 C-43.48050781 88.60748047 -42.96101562 88.21496094 -42.42578125 87.81054688 C-23.0813954 73.23968323 -2.30283201 64.94475383 22.34179688 68.32080078 C31.79729239 69.92995562 40.50989851 72.4640112 49 77 C49.91007812 77.45246094 50.82015625 77.90492188 51.7578125 78.37109375 C61.3729854 83.31259626 69.28733238 89.52084089 76 98 C66.03525392 100.92839753 56.01802727 103.54736935 45.9296875 106.01171875 C44.39920001 106.38775548 42.86877554 106.76404882 41.33840942 107.14057922 C37.325179 108.12737714 33.31122202 109.11118445 29.29705811 110.09417725 C9.91674991 114.84170077 -9.46141479 119.59875118 -28.82400131 124.41810036 C-30.42639275 124.81663365 -32.02898318 125.2143678 -33.63177872 125.61127281 C-35.84217401 126.15888504 -38.05179699 126.70950829 -40.26123047 127.26098633 C-41.5178952 127.57352859 -42.77455994 127.88607086 -44.06930542 128.20808411 C-46.90722392 128.87094091 -46.90722392 128.87094091 -49 130 C-48.41734375 130.44988281 -47.8346875 130.89976562 -47.234375 131.36328125 C-40.15958135 136.91410205 -33.53648538 142.83521489 -27 149 C-25.89978516 150.03640625 -25.89978516 150.03640625 -24.77734375 151.09375 C-10.02642986 165.4047758 1.932368 183.16215813 12 201 C12.45729492 201.79857422 12.91458984 202.59714844 13.38574219 203.41992188 C48 264.06903016 48 264.06903016 48 292 C49.47533203 291.96519531 49.47533203 291.96519531 50.98046875 291.9296875 C62.75852766 291.74567779 74.29953165 292.70435102 86 294 C86.47308594 292.89785156 86.94617188 291.79570312 87.43359375 290.66015625 C101.97479264 257.15023337 121.9687933 225.40184453 150.55078125 202.0234375 C151.76314453 201.02183594 151.76314453 201.02183594 153 200 C153 199.67 153 199.34 153 199 C152.28702759 198.8217569 151.57405518 198.64351379 150.83947754 198.45986938 C116.89298503 189.97324626 82.94649251 181.48662313 49 173 C49 170 49 170 50.51171875 168.23828125 C69.4314513 151.49244974 89.14193787 145.77470175 114 147 C127.14019213 148.54507113 139.07570048 155.54964978 149 164 C143.90603568 153.0486937 138.63705843 142.19506908 133.21484375 131.40234375 C132.62361725 130.22539948 132.03239075 129.0484552 131.42324829 127.83584595 C128.96623329 122.94821338 126.50523997 118.06259146 124.04125977 113.1784668 C122.80574951 110.72898928 121.57234957 108.27847051 120.34120178 105.82679749 C119.19277801 103.54028583 118.04106571 101.25542226 116.88572693 98.97239685 C116.37421585 97.95275345 115.86270477 96.93311005 115.33569336 95.88256836 C114.65693398 94.53623573 114.65693398 94.53623573 113.96446228 93.16270447 C113 91 113 91 113 89 C130.48038025 87.82813093 146.92762899 93.89226047 160.21630859 105.1340332 C175.42612706 118.8058556 182.85762092 136.58526274 184 157 C183.9155111 165.4911344 183.00021591 173.74668193 181 182 C181.82177734 181.09121094 181.82177734 181.09121094 182.66015625 180.1640625 C196.1386306 165.9185205 213.99726403 155.15353201 234 154 C255.01441206 153.62464824 273.65010593 160.33340805 289 175 C296 182.83071553 296 182.83071553 296 186 C288.57187429 187.82959523 281.0959513 188.87881413 273.51623726 189.84765816 C271.27552817 190.13413251 269.03553005 190.42569266 266.79563904 190.7184906 C262.0518388 191.33766761 257.30721904 191.95040977 252.5625 192.5625 C247.03707215 193.27573628 241.51200748 193.9916163 235.98768425 194.71336174 C233.77997211 195.0005159 231.57172381 195.28325966 229.36341858 195.56581116 C228.01772401 195.74101352 226.67205504 195.91641259 225.32641602 196.09204102 C224.14999039 196.24367203 222.97356476 196.39530304 221.76148987 196.55152893 C219.04919334 196.85121496 219.04919334 196.85121496 217 198 C217.82242187 198.29132813 218.64484375 198.58265625 219.4921875 198.8828125 C237.9531207 205.66176949 251.15702073 216.30933695 260.75 233.6875 C267.37682997 248.10927912 268.82840476 264.29722972 267 280 C265.97900391 282.33105469 265.97900391 282.33105469 265 284 C258.10485937 278.45235047 251.36633999 272.75389693 244.69335938 266.94287109 C240.11126647 262.95496769 235.49373304 259.01285065 230.84863281 255.09863281 C226.83615816 251.71518052 222.85289612 248.29899816 218.875 244.875 C214.81379124 241.38176144 210.72481029 237.93551293 206.5625 234.5625 C200.18043487 229.38120861 194.00204604 223.97018926 187.80664062 218.56884766 C184.88397627 216.03086912 181.94286883 213.51449791 179 211 C155.71862172 236.94973109 146.32965234 272.80513217 139 306 C139.60658447 306.21503174 140.21316895 306.43006348 140.83813477 306.65161133 C170.77224173 317.35018412 199.27457687 330.73386286 223 352.3125 C223.74769653 352.99227905 223.74769653 352.99227905 224.51049805 353.68579102 C227.11254918 356.09959968 229.54077013 358.57337751 231.859375 361.26171875 C238.51682907 368.82197422 243.38754459 371.29846862 253.375 372.53125 C262.94211866 373.76837741 268.66697014 380.03133939 275.36181641 386.44287109 C278.16309166 389.10554375 281.02418133 391.70312276 283.875 394.3125 C285.39286025 395.70244936 286.9062269 397.09378195 288.39546204 398.51438904 C289.96179138 400.00182819 289.96179138 400.00182819 291.58068848 401.25733948 C294.84027034 404.03463952 296.38059554 406.04920068 296.74462891 410.38134766 C296.77050689 412.05873047 296.76276629 413.73687078 296.7265625 415.4140625 C296.72755951 416.30612396 296.72855652 417.19818542 296.72958374 418.11727905 C296.72491983 419.99494379 296.70556552 421.87262305 296.67236328 423.75 C296.62502421 426.62353068 296.63126745 429.49336395 296.64453125 432.3671875 C296.63338096 434.1953346 296.61916322 436.02346612 296.6015625 437.8515625 C296.60338531 438.70891998 296.60520813 439.56627747 296.60708618 440.44961548 C296.58802216 441.25079803 296.56895813 442.05198059 296.54931641 442.87744141 C296.54010162 443.57882233 296.53088684 444.28020325 296.52139282 445.00283813 C295.73040625 448.03266161 294.48649395 449.09560625 292 451 C289.08929519 451.39191054 286.55782986 451.53755941 283.64782715 451.50336456 C282.79346982 451.50917833 281.93911249 451.51499209 281.05886555 451.52098203 C278.17633135 451.53565972 275.29463833 451.52166066 272.41210938 451.50793457 C270.33260409 451.51254041 268.25310205 451.51889118 266.17360687 451.52684355 C260.44388556 451.54360347 254.71442937 451.53526025 248.98470688 451.52289867 C242.8114819 451.51387771 236.63830369 451.5278032 230.46508789 451.53881836 C219.06561315 451.55560886 207.66624697 451.55410901 196.26677489 451.54317249 C185.73667871 451.53311935 175.20661367 451.53047921 164.67651367 451.53526306 C163.97865035 451.5355686 163.28078703 451.53587414 162.56177634 451.53618894 C159.7290851 451.53743425 156.89639388 451.53870784 154.06370267 451.540028 C127.4784206 451.55227032 100.89319263 451.54116014 74.30791891 451.51964041 C50.67660445 451.50065727 27.0453762 451.50235576 3.4140625 451.52148438 C-23.12187778 451.54289226 -49.65777024 451.55140218 -76.19371796 451.53903532 C-79.02131652 451.53775241 -81.84891509 451.53650105 -84.67651367 451.53526306 C-85.37276582 451.53494675 -86.06901797 451.53463044 -86.78636867 451.53430455 C-97.31112411 451.52975025 -107.83584504 451.53508395 -118.3605957 451.54518127 C-130.3249731 451.55660237 -142.28924863 451.5534069 -154.25362206 451.5320583 C-160.36240802 451.52151871 -166.47101865 451.51747552 -172.57980347 451.53065491 C-178.16578634 451.54252444 -183.75143043 451.53610639 -189.33738232 451.5147447 C-191.36423499 451.51025548 -193.39111596 451.51259643 -195.41795063 451.52224785 C-198.16165651 451.53431639 -200.90418405 451.52203461 -203.64782715 451.50336456 C-204.84323514 451.51741156 -204.84323514 451.51741156 -206.06279278 451.53174233 C-209.63685091 451.48274102 -211.61035745 451.29935656 -214.48605919 449.08999777 C-216.11119535 446.84649464 -216.54171186 445.7373661 -216.67626953 443.00439453 C-216.72115509 442.22903351 -216.76604065 441.45367249 -216.81228638 440.65481567 C-216.83556 439.82255463 -216.85883362 438.99029358 -216.8828125 438.1328125 C-216.92412796 436.82605057 -216.92412796 436.82605057 -216.96627808 435.4928894 C-217.01279932 433.64558191 -217.04734246 431.79793959 -217.07080078 429.95019531 C-217.12426382 427.16337419 -217.27376003 424.3923041 -217.42578125 421.609375 C-217.6812026 412.79439816 -217.36491855 406.39201068 -211.12167358 399.74020386 C-208.20753104 396.9839001 -205.15668125 394.4703557 -202 392 C-200.5545282 390.71726062 -199.11414545 389.42864558 -197.6875 388.125 C-197.08292969 387.61582031 -196.47835937 387.10664063 -195.85546875 386.58203125 C-194.47458181 385.40464343 -193.12796674 384.18682511 -191.80078125 382.94921875 C-181.36680728 373.2592633 -181.36680728 373.2592633 -173.64453125 372.80078125 C-159.32428632 371.69480446 -152.61368321 362.42686408 -143.24609375 352.33984375 C-138.64961941 347.55151656 -133.47651474 343.73909209 -128 340 C-127.38688965 339.57493164 -126.7737793 339.14986328 -126.14208984 338.71191406 C-98.36825534 319.57317973 -57.63574307 297.62128991 -23 298 C-26.33816796 275.70785891 -30.15982083 253.79835506 -36 232 C-36.27424805 230.95602051 -36.54849609 229.91204102 -36.83105469 228.83642578 C-44.78654522 198.83462666 -56.7243406 167.05697209 -77 143 C-82.81414933 147.18618752 -88.23793634 151.72257471 -93.65283203 156.40332031 C-97.22699307 159.48970678 -100.83164709 162.52522046 -104.5 165.5 C-108.72792288 168.93207857 -112.87531796 172.44546839 -117 176 C-121.12468204 179.55453161 -125.27207712 183.06792143 -129.5 186.5 C-134.90076172 190.88712902 -140.174677 195.41223412 -145.44921875 199.94921875 C-170.27150004 221.29814447 -170.27150004 221.29814447 -180 228 C-182.18433607 221.80379568 -182.34838244 216.03624227 -182.3125 209.5 C-182.30404053 207.89813843 -182.30404053 207.89813843 -182.29541016 206.26391602 C-181.93518237 182.67969601 -173.51276176 162.76195337 -156.72631836 146.18261719 C-146.93708634 136.98989481 -134.6492156 131.17112204 -122 127 C-123.70008965 126.77782555 -123.70008965 126.77782555 -125.43452454 126.55116272 C-136.10320538 125.15654316 -146.77147365 123.75880548 -157.43934345 122.35799503 C-162.9241198 121.63788512 -168.40903677 120.91888378 -173.89428711 120.20239258 C-179.18546928 119.51120974 -184.47626612 118.81714547 -189.76680565 118.12106133 C-191.78772651 117.85568506 -193.80878522 117.59135646 -195.82998085 117.32808113 C-198.65565946 116.95983607 -201.48082992 116.58790647 -204.3059082 116.21508789 C-205.14603958 116.1064743 -205.98617096 115.99786072 -206.85176086 115.88595581 C-210.02536154 115.46403382 -212.95481237 115.01506254 -216 114 C-214.57054244 109.58241082 -212.18263815 106.53224059 -209.0625 103.1875 C-208.57305908 102.66196533 -208.08361816 102.13643066 -207.5793457 101.5949707 C-193.40641458 86.76842803 -173.62345065 77.8793687 -153.16015625 76.796875 C-128.6835771 76.32325007 -107.4321697 83.85759143 -89.3046875 100.7109375 C-86.01059074 103.9827014 -82.94923073 107.41600107 -80 111 C-80.2165625 110.21882813 -80.433125 109.43765625 -80.65625 108.6328125 C-85.99479472 86.43830716 -84.79066656 62.05372203 -73.7265625 41.76953125 C-61.35473397 21.92422258 -44.53960567 8.30482234 -21.8125 2.25 C-14.5184164 0.56455248 -7.47378218 -0.15901664 0 0 Z " fill="#EFC319" transform="translate(216,61)"/>
<path d="M0 0 C2.69223561 1.97536814 5.16138406 4.11019537 7.61328125 6.375 C15.00607573 13.15897611 23.01495468 17.0598385 33.23828125 16.84765625 C43.64725747 15.69296275 51.0742053 11.55363515 58.66796875 4.578125 C67.47999834 -3.41168682 75.33993402 -5.86817689 87.3359375 -5.6796875 C95.69154575 -5.03318088 100.8597653 -1.48671272 107.04296875 3.953125 C116.89560711 12.58637742 125.44640428 16.7985742 138.6796875 16.01953125 C148.08757263 15.13981572 153.42867386 11.24911871 160.15234375 4.83203125 C168.47835599 -2.62776543 177.17320615 -5.94545118 188.2890625 -5.73046875 C198.69271552 -4.78030853 205.95405102 0.34864812 213.46484375 7.22265625 C220.61885067 13.70392399 228.71125029 16.95768802 238.4296875 16.79296875 C248.3054067 15.84503759 255.67713791 11.21804593 262.99243164 4.85717773 C271.71481985 -2.68959021 278.74624224 -6.1661594 290.4921875 -5.73828125 C301.35934874 -4.65557515 307.78764041 0.05870281 315.66796875 7.203125 C322.43671894 13.20360217 331.08941343 17.19091226 340.3046875 16.88671875 C350.03318828 15.61638559 357.4702893 12.12276056 364.66796875 5.578125 C372.50145181 -1.48375159 381.25621361 -7.11211064 392.30859375 -6.7265625 C406.03921792 -4.95340243 414.41358864 2.0389744 423.73828125 11.64453125 C425.64499717 13.55510692 427.6198801 15.32091275 429.66796875 17.078125 C430.28269043 17.63089111 430.89741211 18.18365723 431.53076172 18.75317383 C433.59301757 20.59663326 433.59301757 20.59663326 435.78222656 21.94042969 C439.00521824 24.34674932 441.24264372 26.60504426 442.11499023 30.65185547 C442.70182531 35.9207922 442.63240243 41.18615658 442.49121094 46.47900391 C442.41778947 49.33509911 442.40917532 52.18602456 442.41015625 55.04296875 C442.39050442 56.862024 442.36719491 58.68104422 442.33984375 60.5 C442.33539246 61.35108337 442.33094116 62.20216675 442.32635498 63.07904053 C442.30083557 63.8737677 442.27531616 64.66849487 442.24902344 65.48730469 C442.23377625 66.1826532 442.21852905 66.87800171 442.20281982 67.59442139 C441.39065196 70.60666238 440.14555005 71.67907861 437.66796875 73.578125 C434.75726394 73.97003554 432.22579861 74.11568441 429.3157959 74.08148956 C428.46143857 74.08730333 427.60708124 74.09311709 426.7268343 74.09910703 C423.8443001 74.11378472 420.96260708 74.09978566 418.08007812 74.08605957 C416.00057284 74.09066541 413.9210708 74.09701618 411.84157562 74.10496855 C406.11185431 74.12172847 400.38239812 74.11338525 394.65267563 74.10102367 C388.47945065 74.09200271 382.30627244 74.1059282 376.13305664 74.11694336 C364.7335819 74.13373386 353.33421572 74.13223401 341.93474364 74.12129749 C331.40464746 74.11124435 320.87458242 74.10860421 310.34448242 74.11338806 C309.6466191 74.1136936 308.94875578 74.11399914 308.22974509 74.11431394 C305.39705385 74.11555925 302.56436263 74.11683284 299.73167142 74.118153 C273.14638935 74.13039532 246.56116138 74.11928514 219.97588766 74.09776541 C196.3445732 74.07878227 172.71334495 74.08048076 149.08203125 74.09960938 C122.54609097 74.12101726 96.01019851 74.12952718 69.47425079 74.11716032 C66.64665223 74.11587741 63.81905366 74.11462605 60.99145508 74.11338806 C60.29520293 74.11307175 59.59895078 74.11275544 58.88160008 74.11242955 C48.35684464 74.10787525 37.83212371 74.11320895 27.30737305 74.12330627 C15.34299565 74.13472737 3.37872012 74.1315319 -8.58565331 74.1101833 C-14.69443927 74.09964371 -20.8030499 74.09560052 -26.91183472 74.10877991 C-32.49781759 74.12064944 -38.08346168 74.11423139 -43.66941357 74.0928697 C-45.69626624 74.08838048 -47.72314721 74.09072143 -49.74998188 74.10037285 C-52.49368776 74.11244139 -55.2362153 74.10015961 -57.9798584 74.08148956 C-59.17526639 74.09553656 -59.17526639 74.09553656 -60.39482403 74.10986733 C-63.96888216 74.06086602 -65.9423887 73.87748156 -68.81809044 71.66812277 C-70.4432266 69.42461964 -70.87374311 68.3154911 -71.00830078 65.58251953 C-71.05318634 64.80715851 -71.0980719 64.03179749 -71.14431763 63.23294067 C-71.16759125 62.40067963 -71.19086487 61.56841858 -71.21484375 60.7109375 C-71.24238739 59.83976288 -71.26993103 58.96858826 -71.29830933 58.0710144 C-71.34483057 56.22370691 -71.37937371 54.37606459 -71.40283203 52.52832031 C-71.45629507 49.74149919 -71.60579128 46.9704291 -71.7578125 44.1875 C-72.01323385 35.37252316 -71.6969498 28.97013568 -65.45370483 22.31832886 C-62.53956229 19.5620251 -59.4887125 17.0484807 -56.33203125 14.578125 C-54.88655945 13.29538562 -53.4461767 12.00677058 -52.01953125 10.703125 C-51.41496094 10.19394531 -50.81039062 9.68476563 -50.1875 9.16015625 C-48.80661306 7.98276843 -47.45999799 6.76495011 -46.1328125 5.52734375 C-32.25479125 -7.36107327 -16.71289889 -10.19010921 0 0 Z " fill="#2FA8CB" transform="translate(70.33203125,438.421875)"/>
<path d="M0 0 C-1.48193993 4.87647304 -3.49264062 9.26225232 -5.78125 13.79296875 C-6.15078796 14.53194901 -6.52032593 15.27092926 -6.90106201 16.03230286 C-8.09651363 18.41949944 -9.29801433 20.80358762 -10.5 23.1875 C-11.32923668 24.83912488 -12.15833775 26.49081784 -12.98730469 28.14257812 C-17.35403084 36.8292187 -21.76877618 45.48524854 -26.35107422 54.06054688 C-32.47936438 65.57801021 -38.19864182 77.31555666 -44 89 C-43.48050781 88.60748047 -42.96101562 88.21496094 -42.42578125 87.81054688 C-23.0813954 73.23968323 -2.30283201 64.94475383 22.34179688 68.32080078 C31.79729239 69.92995562 40.50989851 72.4640112 49 77 C49.91007812 77.45246094 50.82015625 77.90492188 51.7578125 78.37109375 C61.3729854 83.31259626 69.28733238 89.52084089 76 98 C66.03525392 100.92839753 56.01802727 103.54736935 45.9296875 106.01171875 C44.39920001 106.38775548 42.86877554 106.76404882 41.33840942 107.14057922 C37.325179 108.12737714 33.31122202 109.11118445 29.29705811 110.09417725 C22.98124217 111.64133968 16.66655609 113.19311078 10.35180855 114.744627 C8.77904452 115.13094372 7.20623339 115.51706873 5.63337517 115.90300179 C-3.23651061 118.07944229 -12.10249676 120.27031402 -20.96069336 122.49389648 C-21.77433601 122.69802123 -22.58797867 122.90214598 -23.42627716 123.11245632 C-27.2996021 124.08461587 -31.17231952 125.05909875 -35.0440979 126.03739929 C-43.94401591 128.27951837 -52.86150095 130.39069547 -61.86102295 132.19981384 C-66.91630515 133.23808813 -69.89185588 135.16309233 -73.57885742 138.76879883 C-75 140 -75 140 -77 140 C-77.21011719 140.55558594 -77.42023438 141.11117187 -77.63671875 141.68359375 C-79.47650532 144.80964943 -82.03372353 146.80854054 -84.8125 149.0625 C-85.99367065 150.04014586 -87.17465501 151.01801684 -88.35546875 151.99609375 C-88.96052246 152.49351074 -89.56557617 152.99092773 -90.18896484 153.50341797 C-93.02601501 155.84786627 -95.82292439 158.23898251 -98.625 160.625 C-102.53000225 163.93710224 -106.46342654 167.20820165 -110.4375 170.4375 C-115.85570579 174.84913055 -121.1527085 179.39323642 -126.44921875 183.94921875 C-133.71031003 190.19427321 -141.00553429 196.3963115 -148.4375 202.4375 C-153.29080883 206.38655333 -158.03847089 210.44765895 -162.77758789 214.53198242 C-168.1086828 219.11679794 -173.53104545 223.58019183 -179 228 C-179.66 227.67 -180.32 227.34 -181 227 C-186.31001971 206.54280869 -181.42828764 181.59899823 -171.03125 163.58984375 C-158.99262485 145.29200589 -142.81285141 133.86310883 -122 127 C-123.70008965 126.77782555 -123.70008965 126.77782555 -125.43452454 126.55116272 C-136.10320538 125.15654316 -146.77147365 123.75880548 -157.43934345 122.35799503 C-162.9241198 121.63788512 -168.40903677 120.91888378 -173.89428711 120.20239258 C-179.18546928 119.51120974 -184.47626612 118.81714547 -189.76680565 118.12106133 C-191.78772651 117.85568506 -193.80878522 117.59135646 -195.82998085 117.32808113 C-198.65565946 116.95983607 -201.48082992 116.58790647 -204.3059082 116.21508789 C-205.14603958 116.1064743 -205.98617096 115.99786072 -206.85176086 115.88595581 C-210.02536154 115.46403382 -212.95481237 115.01506254 -216 114 C-214.57054244 109.58241082 -212.18263815 106.53224059 -209.0625 103.1875 C-208.57305908 102.66196533 -208.08361816 102.13643066 -207.5793457 101.5949707 C-193.40641458 86.76842803 -173.62345065 77.8793687 -153.16015625 76.796875 C-128.6835771 76.32325007 -107.4321697 83.85759143 -89.3046875 100.7109375 C-86.01059074 103.9827014 -82.94923073 107.41600107 -80 111 C-80.2165625 110.21882813 -80.433125 109.43765625 -80.65625 108.6328125 C-85.99479472 86.43830716 -84.79066656 62.05372203 -73.7265625 41.76953125 C-61.35473397 21.92422258 -44.53960567 8.30482234 -21.8125 2.25 C-14.5184164 0.56455248 -7.47378218 -0.15901664 0 0 Z " fill="#4FB96E" transform="translate(216,61)"/>
<path d="M0 0 C17.48038025 -1.17186907 33.92762899 4.89226047 47.21630859 16.1340332 C62.42612706 29.8058556 69.85762092 47.58526274 71 68 C70.9155111 76.4911344 70.00021591 84.74668193 68 93 C68.54785156 92.39414063 69.09570312 91.78828125 69.66015625 91.1640625 C83.1386306 76.9185205 100.99726403 66.15353201 121 65 C142.01441206 64.62464824 160.65010593 71.33340805 176 86 C183 93.83071553 183 93.83071553 183 97 C175.57187429 98.82959523 168.0959513 99.87881413 160.51623726 100.84765816 C158.27552817 101.13413251 156.03553005 101.42569266 153.79563904 101.7184906 C149.0518388 102.33766761 144.30721904 102.95040977 139.5625 103.5625 C134.03707215 104.27573628 128.51200748 104.9916163 122.98768425 105.71336174 C120.77997211 106.0005159 118.57172381 106.28325966 116.36341858 106.56581116 C115.01772401 106.74101352 113.67205504 106.91641259 112.32641602 107.09204102 C111.14999039 107.24367203 109.97356476 107.39530304 108.76148987 107.55152893 C106.04919334 107.85121496 106.04919334 107.85121496 104 109 C104.82242188 109.29132813 105.64484375 109.58265625 106.4921875 109.8828125 C124.9531207 116.66176949 138.15702073 127.30933695 147.75 144.6875 C154.37682997 159.10927912 155.82840476 175.29722972 154 191 C152.97900391 193.33105469 152.97900391 193.33105469 152 195 C145.10485937 189.45235047 138.36633999 183.75389693 131.69335938 177.94287109 C127.11126647 173.95496769 122.49373304 170.01285065 117.84863281 166.09863281 C113.83615816 162.71518052 109.85289612 159.29899816 105.875 155.875 C101.81379124 152.38176144 97.72481029 148.93551293 93.5625 145.5625 C83.86674324 137.68291007 74.47346073 129.42141158 65.24609375 121 C64.50488281 120.34 63.76367188 119.68 63 119 C62.25234375 118.20787109 61.5046875 117.41574219 60.734375 116.59960938 C56.22818197 112.89065643 50.66253478 112.08629073 45.08219719 110.86250305 C42.17502823 110.22428408 39.27729389 109.54700768 36.37824726 108.87300873 C34.79186469 108.50463424 33.205022 108.13823648 31.61776257 107.77365875 C22.52848483 105.68119798 13.48471567 103.41067616 4.43918991 101.13775635 C1.52497517 100.40565497 -1.38980549 99.67585105 -4.30477905 98.94677734 C-8.23243757 97.96433351 -12.15990539 96.9811347 -16.0871582 95.99707031 C-22.16783783 94.47343533 -28.24893346 92.95146518 -34.33007812 91.4296875 C-44.22038966 88.95447208 -54.11032405 86.47775355 -64 84 C-64 81 -64 81 -62.48828125 79.23828125 C-43.5685487 62.49244974 -23.85806213 56.77470175 1 58 C14.14019213 59.54507113 26.07570048 66.54964978 36 75 C30.90603568 64.0486937 25.63705843 53.19506908 20.21484375 42.40234375 C19.62361725 41.22539948 19.03239075 40.0484552 18.42324829 38.83584595 C15.96623329 33.94821338 13.50523997 29.06259146 11.04125977 24.1784668 C9.80574951 21.72898928 8.57234957 19.27847051 7.34120178 16.82679749 C6.19277801 14.54028583 5.04106571 12.25542226 3.88572693 9.97239685 C3.37421585 8.95275345 2.86270477 7.93311005 2.33569336 6.88256836 C1.8831871 5.98501328 1.43068085 5.08745819 0.96446228 4.16270447 C0 2 0 2 0 0 Z " fill="#4FB96E" transform="translate(329,150)"/>
<path d="M0 0 C1.38638672 0.60134766 1.38638672 0.60134766 2.80078125 1.21484375 C18.01655613 8.63979755 29.20770174 22.25015529 35 38 C39.74065365 53.50276914 38.43973934 71.59909552 31.4921875 86.16015625 C22.85664273 102.0455421 10.13473372 112.02888602 -6.765625 117.97265625 C-23.61258491 122.92087535 -41.20736101 120.27702576 -56.57421875 112.140625 C-70.23025141 104.00642979 -79.89313311 90.88641359 -85 76 C-85.36931641 74.948125 -85.36931641 74.948125 -85.74609375 73.875 C-90.45874978 57.23444906 -86.27936636 39.61758389 -78.28515625 24.8359375 C-70.2801985 10.90380217 -56.40391957 1.20789998 -41 -3 C-27.90812208 -5.95145904 -12.29329067 -5.53111385 0 0 Z " fill="#F0C418" transform="translate(475,4)"/>
<path d="M0 0 C6.85618216 5.59921543 13.40633187 11.46771115 19.84375 17.5390625 C20.57722656 18.23 21.31070313 18.9209375 22.06640625 19.6328125 C36.81732014 33.9438383 48.776118 51.70122063 58.84375 69.5390625 C59.30104492 70.33763672 59.75833984 71.13621094 60.22949219 71.95898438 C94.84375 132.60809266 94.84375 132.60809266 94.84375 160.5390625 C94.1130127 160.5484082 93.38227539 160.55775391 92.62939453 160.56738281 C75.59937992 160.83640271 58.9198904 161.97456096 42.02978516 164.16699219 C41.33458267 164.25639572 40.63938019 164.34579926 39.92311096 164.43791199 C38.04245947 164.68204413 36.16290387 164.93457735 34.28344727 165.18774414 C30.77861179 165.54571548 27.36423255 165.59948429 23.84375 165.5390625 C23.6986499 164.6003833 23.5535498 163.6617041 23.40405273 162.69458008 C20.13634547 141.70713893 16.32084911 121.08275349 10.84375 100.5390625 C10.43237793 98.97091797 10.43237793 98.97091797 10.01269531 97.37109375 C2.30751465 68.31786774 -9.08841167 36.5027917 -28.94140625 13.2734375 C-30.15625 11.5390625 -30.15625 11.5390625 -30.15625 8.5390625 C-23.91718928 1.25170431 -8.77835143 -5.94765115 0 0 Z " fill="#CB8251" transform="translate(169.15625,192.4609375)"/>
<path d="M0 0 C3.59406076 3.43407077 6.83378475 7.11285901 9.45703125 11.34765625 C9.45703125 12.00765625 9.45703125 12.66765625 9.45703125 13.34765625 C2.02890554 15.17725148 -5.44701745 16.22647038 -13.02673149 17.19531441 C-15.26744058 17.48178876 -17.5074387 17.77334891 -19.74732971 18.06614685 C-24.49112995 18.68532386 -29.23574971 19.29806602 -33.98046875 19.91015625 C-39.5058966 20.62339253 -45.03096127 21.33927255 -50.5552845 22.06101799 C-52.76299664 22.34817215 -54.97124494 22.63091591 -57.17955017 22.91346741 C-58.52524474 23.08866977 -59.87091371 23.26406884 -61.21655273 23.43969727 C-62.39297836 23.59132828 -63.56940399 23.74295929 -64.78147888 23.89918518 C-67.49377541 24.19887121 -67.49377541 24.19887121 -69.54296875 25.34765625 C-68.72054687 25.63898438 -67.898125 25.9303125 -67.05078125 26.23046875 C-48.58984805 33.00942574 -35.38594802 43.6569932 -25.79296875 61.03515625 C-19.16613878 75.45693537 -17.71456399 91.64488597 -19.54296875 107.34765625 C-20.56396484 109.67871094 -20.56396484 109.67871094 -21.54296875 111.34765625 C-28.43810938 105.80000672 -35.17662876 100.10155318 -41.84960938 94.29052734 C-46.43170228 90.30262394 -51.04923571 86.3605069 -55.69433594 82.44628906 C-59.70681059 79.06283677 -63.69007263 75.64665441 -67.66796875 72.22265625 C-71.72917751 68.72941769 -75.81815846 65.28316918 -79.98046875 61.91015625 C-89.72817998 53.98834373 -99.14055428 45.6614268 -108.4453125 37.2265625 C-111.08790862 34.85954437 -113.79424846 32.59003333 -116.54296875 30.34765625 C-108.611376 10.83889396 -95.90294977 -3.97735329 -76.4453125 -12.54296875 C-49.68543358 -23.47467754 -22.1146762 -18.87680267 0 0 Z " fill="#4EBA6E" transform="translate(502.54296875,233.65234375)"/>
<path d="M0 0 C1.36511719 0.67869141 1.36511719 0.67869141 2.7578125 1.37109375 C12.3729854 6.31259626 20.28733238 12.52084089 27 21 C17.03525392 23.92839753 7.01802727 26.54736935 -3.0703125 29.01171875 C-4.60079999 29.38775548 -6.13122446 29.76404882 -7.66159058 30.14057922 C-11.674821 31.12737714 -15.68877798 32.11118445 -19.70294189 33.09417725 C-26.0186055 34.64130236 -32.33313467 36.1930545 -38.64772797 37.74454117 C-41.00863699 38.32442126 -43.36970403 38.90365498 -45.73077393 39.48287964 C-53.79286066 41.46234784 -61.85042135 43.4585747 -69.90136719 45.48291016 C-70.71101614 45.68629533 -71.52066509 45.8896805 -72.35484886 46.09922886 C-76.20267795 47.0661353 -80.04981696 48.0356411 -83.89578247 49.00993347 C-108.50770421 55.22363686 -108.50770421 55.22363686 -116 55 C-114.56480392 40.07396081 -105.49299205 27.08536492 -96 16 C-95.36578125 15.25234375 -94.7315625 14.5046875 -94.078125 13.734375 C-70.68421934 -11.65900978 -29.71814094 -15.87744913 0 0 Z " fill="#4EB96E" transform="translate(265,138)"/>
<path d="M0 0 C-1.48193993 4.87647304 -3.49264062 9.26225232 -5.78125 13.79296875 C-6.33555695 14.90143913 -6.33555695 14.90143913 -6.90106201 16.03230286 C-8.09651363 18.41949944 -9.29801433 20.80358762 -10.5 23.1875 C-11.32923668 24.83912488 -12.15833775 26.49081784 -12.98730469 28.14257812 C-17.35551256 36.83216628 -21.77259514 45.49061757 -26.35546875 54.06933594 C-32.00578787 64.6905673 -37.2932122 75.50406022 -42.64648438 86.27709961 C-43.09314453 87.17565674 -43.53980469 88.07421387 -44 89 C-44.35562012 89.73758545 -44.71124023 90.4751709 -45.07763672 91.23510742 C-46.29775845 93.5697448 -47.91227092 95.3756788 -49.625 97.375 C-56.85615025 106.26575851 -63.61671111 117.16557949 -66.1875 128.4375 C-66.455625 129.613125 -66.72375 130.78875 -67 132 C-77.22160064 122.96483515 -82.17926374 106.24981855 -83.23486328 93.06689453 C-84.71324295 66.18015115 -78.57643786 45.57190668 -61.171875 24.8203125 C-45.68837839 8.05774443 -22.52493194 -0.47925387 0 0 Z " fill="#23AE5E" transform="translate(216,61)"/>
<path d="M0 0 C3.50477714 2.84099359 6.77930205 5.84214494 10 9 C11.14275391 10.08861328 11.14275391 10.08861328 12.30859375 11.19921875 C19.39832373 18.43639546 23.57881698 26.99973457 28 36 C28.33 36.66 28.66 37.32 29 38 C23.51366273 37.37655258 18.30323159 36.12174286 12.96484375 34.71875 C8.11070175 33.5419883 3.72672974 32.94303253 -1.27294922 33.11108398 C-24.15793145 33.86290284 -46.38114605 30.65266254 -69.00054932 27.49554443 C-73.21929206 26.91083267 -77.4402406 26.34306801 -81.66137886 25.77594852 C-90.36528042 24.60622108 -99.06791146 23.42651588 -107.76611328 22.21508789 C-108.95796989 22.05216751 -108.95796989 22.05216751 -110.17390442 21.88595581 C-113.23703837 21.45527312 -116.05798984 20.98067005 -119 20 C-117.57054244 15.58241082 -115.18263815 12.53224059 -112.0625 9.1875 C-111.32833862 8.399198 -111.32833862 8.399198 -110.5793457 7.5949707 C-81.23625867 -23.10132835 -33.25798819 -24.73691979 0 0 Z " fill="#4B8056" transform="translate(119,155)"/>
<path d="M0 0 C1.39798828 0.35964844 1.39798828 0.35964844 2.82421875 0.7265625 C3.68660156 1.00242187 4.54898438 1.27828125 5.4375 1.5625 C6.46810547 1.88347656 6.46810547 1.88347656 7.51953125 2.2109375 C11.74278357 3.77510503 14.67905538 6.02824283 17.4375 9.5625 C17.16390949 13.50391327 14.70317658 16.21292857 12.4375 19.3125 C-4.61682293 43.38737637 -13.29615664 71.05768921 -20.0534668 99.53320312 C-21.46792524 105.46792524 -21.46792524 105.46792524 -22.5625 106.5625 C-28.99342825 105.97463121 -35.18610781 104.24633287 -41.4375 102.6875 C-49.75915578 100.63905495 -58.04441512 98.76899291 -66.52294922 97.50048828 C-69.87223211 96.97815453 -71.67705015 96.48613323 -74.5625 94.5625 C-61.70014159 64.5970601 -45.56309484 37.50981498 -22.5 14.25 C-21.74396484 13.48461914 -20.98792969 12.71923828 -20.20898438 11.93066406 C-6.48900132 -1.71170377 -6.48900132 -1.71170377 0 0 Z " fill="#CA8251" transform="translate(376.5625,260.4375)"/>
<path d="M0 0 C6.85618216 5.59921543 13.40633187 11.46771115 19.84375 17.5390625 C20.57722656 18.23 21.31070313 18.9209375 22.06640625 19.6328125 C30.21999378 27.5432513 36.94307095 36.55664415 43.59375 45.7265625 C44.40815552 46.84877197 44.40815552 46.84877197 45.23901367 47.99365234 C54.7222216 61.20225015 54.7222216 61.20225015 55.15625 65.9765625 C51.29653592 76.4529293 41.31333285 82.51940231 31.61328125 87.046875 C25.45969335 89.67020724 20.32342315 91.69011083 13.59375 91.6015625 C12.25570312 91.58802734 12.25570312 91.58802734 10.890625 91.57421875 C10.21515625 91.56261719 9.5396875 91.55101562 8.84375 91.5390625 C8.40675781 90.2718335 8.40675781 90.2718335 7.9609375 88.97900391 C-1.26372582 62.33118521 -10.56904799 35.98808214 -28.57421875 13.7890625 C-30.15625 11.5390625 -30.15625 11.5390625 -30.15625 8.5390625 C-23.91718928 1.25170431 -8.77835143 -5.94765115 0 0 Z " fill="#CB8251" transform="translate(169.15625,192.4609375)"/>
<path d="M0 0 C17.48038025 -1.17186907 33.92762899 4.89226047 47.21630859 16.1340332 C62.44936298 29.82674193 69.80817482 47.56871125 71 68 C71.11113356 81.33602694 68.94908408 94.6554976 61.3671875 105.8515625 C59.90270057 108.15289911 58.94117882 110.44537178 58 113 C56.0184511 110.02767666 55.09364536 107.54819493 53.9375 104.1875 C50.76553345 95.76958878 46.00985552 88.55136432 40.75263977 81.27311707 C35.49646344 73.78250043 31.59937024 65.61468629 27.5390625 57.44140625 C26.74091824 55.84459826 25.94235771 54.24799826 25.1434021 52.65159607 C23.48064912 49.32600092 21.82201212 45.99839681 20.16650391 42.66918945 C18.04145625 38.39626068 15.90744962 34.12788193 13.77057838 29.86085606 C12.12560638 26.57424483 10.48461694 23.28565852 8.84492111 19.99641228 C8.058921 18.42055893 7.27183757 16.84524544 6.48366165 15.2704792 C5.3883038 13.08013267 4.29815976 10.88727159 3.20947266 8.69360352 C2.88227234 8.0416803 2.55507202 7.38975708 2.21795654 6.71807861 C0 2.22876058 0 2.22876058 0 0 Z " fill="#4B8055" transform="translate(329,150)"/>
<path d="M0 0 C3.59406076 3.43407077 6.83378475 7.11285901 9.45703125 11.34765625 C9.45703125 12.00765625 9.45703125 12.66765625 9.45703125 13.34765625 C1.62313014 15.24404883 -6.26072615 16.39280407 -14.2421875 17.4765625 C-14.94670359 17.57277327 -15.65121967 17.66898403 -16.37708473 17.76811028 C-20.12635191 18.2795997 -23.87624928 18.78615113 -27.62670898 19.28881836 C-30.65955331 19.69612797 -33.6909764 20.11217908 -36.72143555 20.53686523 C-53.76227728 22.92229872 -70.5691104 24.84253399 -87.79386902 25.0426178 C-94.61862279 25.13551654 -100.91274488 25.7106498 -107.54296875 27.34765625 C-108.32827469 27.53686142 -109.11358063 27.72606659 -109.92268372 27.92100525 C-111.79970353 28.38217603 -113.67198277 28.86258581 -115.54296875 29.34765625 C-114.27923755 24.14717077 -112.43670724 19.95928663 -109.48046875 15.47265625 C-109.07908691 14.86260742 -108.67770508 14.25255859 -108.26416016 13.62402344 C-96.74674059 -3.41112745 -78.53570996 -13.92409661 -58.60546875 -18.08984375 C-36.95853254 -20.93889777 -16.52590333 -14.10629816 0 0 Z " fill="#24AE5E" transform="translate(502.54296875,233.65234375)"/>
<path d="M0 0 C3.37446174 1.12482058 4.01954686 1.98399549 6.1875 4.6875 C15.45257355 15.51931877 26.99182065 20.36204535 41 22 C40.39288482 27.62213955 39.40782283 32.96433371 38 38.4375 C37.82210937 39.15615234 37.64421875 39.87480469 37.4609375 40.61523438 C36.13149889 45.86850111 36.13149889 45.86850111 35 47 C28.56907175 46.41213121 22.37639219 44.68383287 16.125 43.125 C7.80334422 41.07655495 -0.48191512 39.20649291 -8.96044922 37.93798828 C-12.30973211 37.41565453 -14.11455015 36.92363323 -17 35 C-11.85819404 23.02113326 -6.25451379 11.43765254 0 0 Z " fill="#CB8251" transform="translate(319,320)"/>
<path d="M0 0 C5.77555181 1.72866862 7.68778477 5.18097579 10.65234375 10.19140625 C12 13 12 13 12.4375 16.625 C7.57399448 28.04366513 -3.49733427 34.21110474 -14.4375 38.875 C-19.58590035 40.94532877 -23.68676033 42.13570052 -29.25 42.0625 C-30.14203125 42.05347656 -31.0340625 42.04445313 -31.953125 42.03515625 C-32.62859375 42.02355469 -33.3040625 42.01195312 -34 42 C-34.83698386 39.54285453 -35.66972424 37.08441143 -36.5 34.625 C-36.73847656 33.92632812 -36.97695312 33.22765625 -37.22265625 32.5078125 C-39 27.2265625 -39 27.2265625 -39 25 C-37.76636719 24.85304688 -37.76636719 24.85304688 -36.5078125 24.703125 C-25.36243357 23.2102105 -12.83341083 20.24196613 -5.3984375 11.01171875 C-3.15142102 7.52293 -1.35192755 3.93288014 0 0 Z " fill="#A66A43" transform="translate(212,242)"/>
<path d="M0 0 C0.66 0 1.32 0 2 0 C2.23074219 0.66386719 2.46148437 1.32773437 2.69921875 2.01171875 C6.19128461 11.46652158 10.67540666 15.34268098 19.70703125 19.70703125 C24.75857013 21.69049432 29.62120675 22.35966747 35 23 C33.35 28.61 31.7 34.22 30 40 C18.73704675 40.73855431 9.03708054 36.61072612 0 30 C-9.69863144 21.47291578 -9.69863144 21.47291578 -11 17 C-10.05859375 14.66796875 -10.05859375 14.66796875 -8.4375 12.1875 C-7.87417969 11.31738281 -7.31085938 10.44726562 -6.73046875 9.55078125 C-6.15941406 8.70902344 -5.58835937 7.86726563 -5 7 C-4.28263672 5.90751953 -4.28263672 5.90751953 -3.55078125 4.79296875 C-2.43474894 3.14740759 -1.22541544 1.56580862 0 0 Z " fill="#A66A43" transform="translate(331,302)"/>
</svg>
